<svg xmlns="http://www.w3.org/2000/svg" xmlns:xlink="http://www.w3.org/1999/xlink" width="130" zoomAndPan="magnify" viewBox="0 0 97.5 30.000001" height="40" preserveAspectRatio="xMidYMid meet" version="1.0"><defs><clipPath id="414a4922aa"><path d="M 1.601562 2.054688 L 93.835938 2.054688 L 93.835938 27.328125 L 1.601562 27.328125 Z M 1.601562 2.054688 " clip-rule="nonzero"/></clipPath><clipPath id="865a6cbfc0"><path d="M 4.09375 4.441406 L 33.730469 4.441406 L 33.730469 25.054688 L 4.09375 25.054688 Z M 4.09375 4.441406 " clip-rule="nonzero"/></clipPath></defs><g clip-path="url(#414a4922aa)"><path stroke-linecap="butt" transform="matrix(0.332924, 0, 0, 0.331192, 1.604015, 2.057368)" fill="none" stroke-linejoin="miter" d="M -0.00736551 0.00370184 L 277.036357 0.00370184 L 277.036357 76.30235 L -0.00736551 76.30235 L -0.00736551 0.00370184 " stroke="#000000" stroke-width="6" stroke-opacity="1" stroke-miterlimit="4"/></g><g clip-path="url(#865a6cbfc0)"><path fill="#000000" d="M 4.09375 4.441406 L 33.730469 4.441406 L 33.730469 25.054688 L 4.09375 25.054688 L 4.09375 4.441406 " fill-opacity="1" fill-rule="nonzero"/></g><path fill="#ffffff" d="M 12.371094 18.34375 C 14.5 18.34375 15.9375 16.734375 15.898438 14.460938 L 12.132812 14.460938 L 12.132812 15.289062 L 14.957031 15.289062 C 14.777344 16.59375 13.789062 17.472656 12.394531 17.472656 C 10.839844 17.472656 9.738281 16.355469 9.738281 14.757812 C 9.738281 13.152344 10.828125 12.039062 12.382812 12.039062 C 13.453125 12.039062 14.304688 12.5625 14.738281 13.453125 L 15.691406 13.453125 C 15.242188 12.085938 13.9375 11.164062 12.351562 11.164062 C 10.324219 11.164062 8.847656 12.679688 8.847656 14.757812 C 8.847656 16.84375 10.332031 18.34375 12.371094 18.34375 Z M 12.371094 18.34375 " fill-opacity="1" fill-rule="nonzero"/><path fill="#ffffff" d="M 19.429688 18.214844 L 20.300781 18.214844 L 20.300781 11.296875 L 19.429688 11.296875 Z M 19.429688 18.214844 " fill-opacity="1" fill-rule="nonzero"/><path fill="#ffffff" d="M 25.972656 18.214844 L 26.847656 18.214844 L 26.847656 12.125 L 29.183594 12.125 L 29.183594 11.296875 L 23.628906 11.296875 L 23.628906 12.125 L 25.972656 12.125 Z M 25.972656 18.214844 " fill-opacity="1" fill-rule="nonzero"/><path fill="#000000" d="M 36.589844 18.214844 L 38.589844 18.214844 L 38.589844 16.160156 L 40.90625 16.160156 L 40.90625 14.429688 L 38.589844 14.429688 L 38.589844 13.074219 L 41.167969 13.074219 L 41.167969 11.296875 L 36.589844 11.296875 Z M 36.589844 18.214844 " fill-opacity="1" fill-rule="nonzero"/><path fill="#000000" d="M 44.253906 18.214844 L 46.253906 18.214844 L 46.253906 16.246094 L 47.007812 16.246094 L 47.996094 18.214844 L 50.261719 18.214844 L 48.984375 15.882812 C 49.71875 15.476562 50.136719 14.746094 50.136719 13.777344 C 50.136719 12.242188 49.09375 11.296875 47.414062 11.296875 L 44.253906 11.296875 Z M 46.214844 14.65625 L 46.214844 12.925781 L 47.144531 12.925781 C 47.777344 12.925781 48.125 13.234375 48.125 13.789062 C 48.125 14.339844 47.777344 14.65625 47.144531 14.65625 Z M 46.214844 14.65625 " fill-opacity="1" fill-rule="nonzero"/><path fill="#000000" d="M 53.359375 18.214844 L 55.359375 18.214844 L 55.359375 11.296875 L 53.359375 11.296875 Z M 53.359375 18.214844 " fill-opacity="1" fill-rule="nonzero"/><path fill="#000000" d="M 58.804688 18.214844 L 63.667969 18.214844 L 63.667969 16.582031 L 60.785156 16.582031 L 60.785156 15.515625 L 63.289062 15.515625 L 63.289062 13.914062 L 60.785156 13.914062 L 60.785156 12.90625 L 63.558594 12.90625 L 63.558594 11.296875 L 58.804688 11.296875 Z M 58.804688 18.214844 " fill-opacity="1" fill-rule="nonzero"/><path fill="#000000" d="M 66.824219 18.214844 L 68.804688 18.214844 L 68.804688 14.6875 L 71.4375 18.214844 L 73.0625 18.214844 L 73.0625 11.296875 L 71.089844 11.296875 L 71.089844 14.804688 L 68.457031 11.296875 L 66.824219 11.296875 Z M 66.824219 18.214844 " fill-opacity="1" fill-rule="nonzero"/><path fill="#000000" d="M 76.515625 18.214844 L 79.457031 18.214844 C 81.695312 18.214844 83.179688 16.84375 83.179688 14.757812 C 83.179688 12.679688 81.695312 11.296875 79.457031 11.296875 L 76.515625 11.296875 Z M 78.515625 16.425781 L 78.515625 13.082031 L 79.398438 13.082031 C 80.453125 13.082031 81.136719 13.738281 81.136719 14.757812 C 81.136719 15.773438 80.453125 16.425781 79.398438 16.425781 Z M 78.515625 16.425781 " fill-opacity="1" fill-rule="nonzero"/><path fill="#000000" d="M 88.710938 18.363281 C 90.433594 18.363281 91.453125 17.554688 91.453125 16.1875 C 91.453125 15.042969 90.710938 14.371094 89.027344 13.992188 C 88.136719 13.796875 87.808594 13.578125 87.808594 13.222656 C 87.808594 12.886719 88.105469 12.679688 88.574219 12.679688 C 89.128906 12.679688 89.445312 12.964844 89.445312 13.488281 L 91.324219 13.488281 C 91.324219 12.066406 90.234375 11.148438 88.535156 11.148438 C 86.898438 11.148438 85.890625 11.957031 85.890625 13.261719 C 85.890625 14.429688 86.652344 15.152344 88.214844 15.449219 C 89.058594 15.617188 89.464844 15.875 89.464844 16.269531 C 89.464844 16.613281 89.167969 16.8125 88.679688 16.8125 C 88.105469 16.8125 87.769531 16.507812 87.769531 15.972656 L 85.839844 15.972656 C 85.839844 17.464844 86.910156 18.363281 88.710938 18.363281 Z M 88.710938 18.363281 " fill-opacity="1" fill-rule="nonzero"/></svg>