<svg xmlns="http://www.w3.org/2000/svg" xmlns:xlink="http://www.w3.org/1999/xlink" width="130" zoomAndPan="magnify" viewBox="0 0 97.5 30.000001" height="40" preserveAspectRatio="xMidYMid meet" version="1.0"><defs><filter x="0%" y="0%" width="100%" height="100%" id="710ef9d0e4"><feColorMatrix values="0 0 0 0 1 0 0 0 0 1 0 0 0 0 1 0 0 0 1 0" color-interpolation-filters="sRGB"/></filter><g/><clipPath id="cc2a73f8dd"><path d="M 7 11 L 22 11 L 22 21 L 7 21 Z M 7 11 " clip-rule="nonzero"/></clipPath><clipPath id="0b29a4a7aa"><path d="M -0.179688 12.269531 L 19.253906 5.972656 L 22.851562 17.078125 L 3.417969 23.375 Z M -0.179688 12.269531 " clip-rule="nonzero"/></clipPath><clipPath id="79b611dcdb"><path d="M -0.179688 12.269531 L 19.253906 5.972656 L 22.851562 17.078125 L 3.417969 23.375 Z M -0.179688 12.269531 " clip-rule="nonzero"/></clipPath><clipPath id="5ad5b44971"><path d="M 6 10 L 23 10 L 23 22 L 6 22 Z M 6 10 " clip-rule="nonzero"/></clipPath><clipPath id="a98799e99a"><path d="M -0.179688 12.269531 L 19.253906 5.972656 L 22.851562 17.078125 L 3.417969 23.375 Z M -0.179688 12.269531 " clip-rule="nonzero"/></clipPath><clipPath id="d5460355c9"><path d="M -0.179688 12.269531 L 19.253906 5.972656 L 22.851562 17.078125 L 3.417969 23.375 Z M -0.179688 12.269531 " clip-rule="nonzero"/></clipPath><mask id="ca60e0a35d"><g filter="url(#710ef9d0e4)"><rect x="-9.75" width="117" fill="#000000" y="-3" height="36.000001" fill-opacity="0.098"/></g></mask><clipPath id="e4eb2d2d5e"><path d="M 1 1 L 16 1 L 16 11 L 1 11 Z M 1 1 " clip-rule="nonzero"/></clipPath><clipPath id="2833e94d91"><path d="M -6.179688 2.269531 L 13.253906 -4.027344 L 16.851562 7.078125 L -2.582031 13.375 Z M -6.179688 2.269531 " clip-rule="nonzero"/></clipPath><clipPath id="df7610f951"><path d="M -6.179688 2.269531 L 13.253906 -4.027344 L 16.851562 7.078125 L -2.582031 13.375 Z M -6.179688 2.269531 " clip-rule="nonzero"/></clipPath><clipPath id="ed1bf5bc73"><rect x="0" width="17" y="0" height="12"/></clipPath><clipPath id="28407df672"><path d="M 13 11 L 22 11 L 22 20 L 13 20 Z M 13 11 " clip-rule="nonzero"/></clipPath><clipPath id="29f7f1943f"><path d="M -0.179688 12.269531 L 19.253906 5.972656 L 22.851562 17.078125 L 3.417969 23.375 Z M -0.179688 12.269531 " clip-rule="nonzero"/></clipPath><clipPath id="e8da31d0cc"><path d="M -0.179688 12.269531 L 19.253906 5.972656 L 22.851562 17.078125 L 3.417969 23.375 Z M -0.179688 12.269531 " clip-rule="nonzero"/></clipPath><clipPath id="c45489907d"><path d="M 7 13 L 23 13 L 23 22 L 7 22 Z M 7 13 " clip-rule="nonzero"/></clipPath><clipPath id="6203b73fc4"><path d="M -0.179688 12.269531 L 19.253906 5.972656 L 22.851562 17.078125 L 3.417969 23.375 Z M -0.179688 12.269531 " clip-rule="nonzero"/></clipPath><clipPath id="caa822f935"><path d="M -0.179688 12.269531 L 19.253906 5.972656 L 22.851562 17.078125 L 3.417969 23.375 Z M -0.179688 12.269531 " clip-rule="nonzero"/></clipPath><mask id="7b715115bc"><g filter="url(#710ef9d0e4)"><rect x="-9.75" width="117" fill="#000000" y="-3" height="36.000001" fill-opacity="0.098"/></g></mask><clipPath id="be2f7ad35e"><path d="M 0.136719 0.238281 L 15 0.238281 L 15 8 L 0.136719 8 Z M 0.136719 0.238281 " clip-rule="nonzero"/></clipPath><clipPath id="ea2897b4f8"><path d="M -7.179688 -0.730469 L 12.253906 -7.027344 L 15.851562 4.078125 L -3.582031 10.375 Z M -7.179688 -0.730469 " clip-rule="nonzero"/></clipPath><clipPath id="3c97857930"><path d="M -7.179688 -0.730469 L 12.253906 -7.027344 L 15.851562 4.078125 L -3.582031 10.375 Z M -7.179688 -0.730469 " clip-rule="nonzero"/></clipPath><clipPath id="8bc6921b11"><rect x="0" width="16" y="0" height="9"/></clipPath><clipPath id="7957c3e11f"><path d="M 9 13 L 16 13 L 16 17 L 9 17 Z M 9 13 " clip-rule="nonzero"/></clipPath><clipPath id="adc184de1d"><path d="M -0.179688 12.269531 L 19.253906 5.972656 L 22.851562 17.078125 L 3.417969 23.375 Z M -0.179688 12.269531 " clip-rule="nonzero"/></clipPath><clipPath id="4822424bb4"><path d="M -0.179688 12.269531 L 19.253906 5.972656 L 22.851562 17.078125 L 3.417969 23.375 Z M -0.179688 12.269531 " clip-rule="nonzero"/></clipPath><clipPath id="99a40b5ad9"><path d="M 2 9 L 15 9 L 15 23 L 2 23 Z M 2 9 " clip-rule="nonzero"/></clipPath><clipPath id="cd057337ce"><path d="M -0.179688 12.269531 L 19.253906 5.972656 L 22.851562 17.078125 L 3.417969 23.375 Z M -0.179688 12.269531 " clip-rule="nonzero"/></clipPath><clipPath id="c10cb6bf88"><path d="M -0.179688 12.269531 L 19.253906 5.972656 L 22.851562 17.078125 L 3.417969 23.375 Z M -0.179688 12.269531 " clip-rule="nonzero"/></clipPath><clipPath id="11f61662a4"><path d="M 1.332031 8 L 17 8 L 17 24 L 1.332031 24 Z M 1.332031 8 " clip-rule="nonzero"/></clipPath><clipPath id="045247ca93"><path d="M -0.179688 12.269531 L 19.253906 5.972656 L 22.851562 17.078125 L 3.417969 23.375 Z M -0.179688 12.269531 " clip-rule="nonzero"/></clipPath><clipPath id="d457e0e449"><path d="M -0.179688 12.269531 L 19.253906 5.972656 L 22.851562 17.078125 L 3.417969 23.375 Z M -0.179688 12.269531 " clip-rule="nonzero"/></clipPath><mask id="7602771378"><g filter="url(#710ef9d0e4)"><rect x="-9.75" width="117" fill="#000000" y="-3" height="36.000001" fill-opacity="0.098"/></g></mask><clipPath id="22a8f0cc61"><path d="M 1 1 L 14 1 L 14 15 L 1 15 Z M 1 1 " clip-rule="nonzero"/></clipPath><clipPath id="525ed03e8a"><path d="M -1.179688 4.269531 L 18.253906 -2.027344 L 21.851562 9.078125 L 2.417969 15.375 Z M -1.179688 4.269531 " clip-rule="nonzero"/></clipPath><clipPath id="1f2ce346af"><path d="M -1.179688 4.269531 L 18.253906 -2.027344 L 21.851562 9.078125 L 2.417969 15.375 Z M -1.179688 4.269531 " clip-rule="nonzero"/></clipPath><clipPath id="f551e7ec0c"><rect x="0" width="16" y="0" height="16"/></clipPath><clipPath id="ee5f15307a"><path d="M 6 9 L 15 9 L 15 18 L 6 18 Z M 6 9 " clip-rule="nonzero"/></clipPath><clipPath id="b969197cf7"><path d="M -0.179688 12.269531 L 19.253906 5.972656 L 22.851562 17.078125 L 3.417969 23.375 Z M -0.179688 12.269531 " clip-rule="nonzero"/></clipPath><clipPath id="c80355f9f5"><path d="M -0.179688 12.269531 L 19.253906 5.972656 L 22.851562 17.078125 L 3.417969 23.375 Z M -0.179688 12.269531 " clip-rule="nonzero"/></clipPath><clipPath id="1b50d86736"><path d="M 1.332031 9 L 17 9 L 17 24 L 1.332031 24 Z M 1.332031 9 " clip-rule="nonzero"/></clipPath><clipPath id="be3918c926"><path d="M -0.179688 12.269531 L 19.253906 5.972656 L 22.851562 17.078125 L 3.417969 23.375 Z M -0.179688 12.269531 " clip-rule="nonzero"/></clipPath><clipPath id="a94f91999d"><path d="M -0.179688 12.269531 L 19.253906 5.972656 L 22.851562 17.078125 L 3.417969 23.375 Z M -0.179688 12.269531 " clip-rule="nonzero"/></clipPath><mask id="c575a5a9eb"><g filter="url(#710ef9d0e4)"><rect x="-9.75" width="117" fill="#000000" y="-3" height="36.000001" fill-opacity="0.098"/></g></mask><clipPath id="dcb7bf7fe5"><path d="M 2 0.0585938 L 14 0.0585938 L 14 14 L 2 14 Z M 2 0.0585938 " clip-rule="nonzero"/></clipPath><clipPath id="c12867f8de"><path d="M -1.179688 3.269531 L 18.253906 -3.027344 L 21.851562 8.078125 L 2.417969 14.375 Z M -1.179688 3.269531 " clip-rule="nonzero"/></clipPath><clipPath id="419c6b2ef3"><path d="M -1.179688 3.269531 L 18.253906 -3.027344 L 21.851562 8.078125 L 2.417969 14.375 Z M -1.179688 3.269531 " clip-rule="nonzero"/></clipPath><clipPath id="2dfa12f4b1"><rect x="0" width="16" y="0" height="15"/></clipPath><clipPath id="9bbbe9cb46"><path d="M 3 13 L 9 13 L 9 19 L 3 19 Z M 3 13 " clip-rule="nonzero"/></clipPath><clipPath id="03226fb7ea"><path d="M -0.179688 12.269531 L 19.253906 5.972656 L 22.851562 17.078125 L 3.417969 23.375 Z M -0.179688 12.269531 " clip-rule="nonzero"/></clipPath><clipPath id="24cb3a2ab3"><path d="M -0.179688 12.269531 L 19.253906 5.972656 L 22.851562 17.078125 L 3.417969 23.375 Z M -0.179688 12.269531 " clip-rule="nonzero"/></clipPath></defs><g clip-path="url(#cc2a73f8dd)"><g clip-path="url(#0b29a4a7aa)"><g clip-path="url(#79b611dcdb)"><path fill="#f5f5f5" d="M 21.714844 13.976562 C 21.84375 14.378906 21.894531 14.792969 21.863281 15.210938 C 21.832031 15.632812 21.71875 16.03125 21.53125 16.40625 C 21.34375 16.78125 21.089844 17.105469 20.769531 17.378906 C 20.453125 17.652344 20.09375 17.855469 19.695312 17.984375 L 11.601562 20.605469 C 11.203125 20.734375 10.796875 20.78125 10.378906 20.746094 C 9.960938 20.710938 9.566406 20.597656 9.191406 20.40625 C 8.816406 20.210938 8.496094 19.953125 8.222656 19.632812 C 7.949219 19.308594 7.75 18.949219 7.617188 18.546875 C 7.488281 18.144531 7.4375 17.734375 7.46875 17.3125 C 7.5 16.890625 7.613281 16.492188 7.800781 16.117188 C 7.992188 15.742188 8.246094 15.417969 8.5625 15.144531 C 8.878906 14.871094 9.238281 14.671875 9.636719 14.542969 L 17.730469 11.917969 C 18.128906 11.789062 18.539062 11.742188 18.953125 11.777344 C 19.371094 11.8125 19.769531 11.925781 20.140625 12.117188 C 20.515625 12.3125 20.839844 12.570312 21.109375 12.890625 C 21.382812 13.214844 21.585938 13.574219 21.714844 13.976562 Z M 21.714844 13.976562 " fill-opacity="1" fill-rule="nonzero"/></g></g></g><g clip-path="url(#5ad5b44971)"><g clip-path="url(#a98799e99a)"><g clip-path="url(#d5460355c9)"><g mask="url(#ca60e0a35d)"><g transform="matrix(1, 0, 0, 1, 6, 10)"><g clip-path="url(#ed1bf5bc73)"><g clip-path="url(#e4eb2d2d5e)"><g clip-path="url(#2833e94d91)"><g clip-path="url(#df7610f951)"><path fill="#737373" d="M 15.714844 3.976562 C 15.84375 4.378906 15.894531 4.792969 15.863281 5.210938 C 15.832031 5.632812 15.71875 6.03125 15.53125 6.40625 C 15.34375 6.78125 15.089844 7.105469 14.769531 7.378906 C 14.453125 7.652344 14.09375 7.855469 13.695312 7.984375 L 5.601562 10.605469 C 5.203125 10.734375 4.796875 10.78125 4.378906 10.746094 C 3.960938 10.710938 3.566406 10.597656 3.191406 10.40625 C 2.816406 10.210938 2.496094 9.953125 2.222656 9.632812 C 1.949219 9.308594 1.75 8.949219 1.617188 8.546875 C 1.488281 8.144531 1.4375 7.734375 1.46875 7.3125 C 1.5 6.890625 1.613281 6.492188 1.800781 6.117188 C 1.992188 5.742188 2.246094 5.417969 2.5625 5.144531 C 2.878906 4.871094 3.238281 4.671875 3.636719 4.542969 L 11.730469 1.917969 C 12.128906 1.789062 12.539062 1.742188 12.953125 1.777344 C 13.371094 1.8125 13.769531 1.925781 14.140625 2.117188 C 14.515625 2.3125 14.839844 2.570312 15.109375 2.890625 C 15.382812 3.214844 15.585938 3.574219 15.714844 3.976562 Z M 15.714844 3.976562 " fill-opacity="1" fill-rule="nonzero"/></g></g></g></g></g></g></g></g></g><g clip-path="url(#28407df672)"><g clip-path="url(#29f7f1943f)"><g clip-path="url(#e8da31d0cc)"><path fill="#ff1616" d="M 13.683594 13.230469 L 17.730469 11.917969 C 18.128906 11.789062 18.539062 11.742188 18.953125 11.777344 C 19.371094 11.8125 19.769531 11.925781 20.140625 12.117188 C 20.515625 12.3125 20.839844 12.570312 21.109375 12.890625 C 21.382812 13.214844 21.585938 13.574219 21.714844 13.976562 C 21.84375 14.378906 21.894531 14.792969 21.863281 15.210938 C 21.832031 15.632812 21.71875 16.03125 21.53125 16.40625 C 21.34375 16.78125 21.089844 17.105469 20.769531 17.378906 C 20.453125 17.652344 20.09375 17.855469 19.695312 17.984375 L 15.648438 19.292969 Z M 13.683594 13.230469 " fill-opacity="1" fill-rule="nonzero"/></g></g></g><g clip-path="url(#c45489907d)"><g clip-path="url(#6203b73fc4)"><g clip-path="url(#caa822f935)"><g mask="url(#7b715115bc)"><g transform="matrix(1, 0, 0, 1, 7, 13)"><g clip-path="url(#8bc6921b11)"><g clip-path="url(#be2f7ad35e)"><g clip-path="url(#ea2897b4f8)"><g clip-path="url(#3c97857930)"><path fill="#737373" d="M 12.308594 3.777344 L 4.210938 6.402344 C 3.863281 6.515625 3.507812 6.566406 3.144531 6.554688 C 2.78125 6.539062 2.429688 6.46875 2.089844 6.332031 C 1.75 6.199219 1.441406 6.011719 1.164062 5.769531 C 0.890625 5.527344 0.660156 5.246094 0.480469 4.925781 C 0.507812 5.160156 0.5625 5.386719 0.640625 5.609375 C 0.71875 5.835938 0.816406 6.046875 0.941406 6.246094 C 1.066406 6.445312 1.210938 6.632812 1.375 6.800781 C 1.539062 6.96875 1.722656 7.117188 1.917969 7.246094 C 2.113281 7.375 2.324219 7.480469 2.542969 7.558594 C 2.761719 7.640625 2.988281 7.699219 3.222656 7.730469 C 3.453125 7.761719 3.683594 7.765625 3.917969 7.746094 C 4.152344 7.722656 4.378906 7.679688 4.601562 7.605469 L 12.695312 4.980469 C 12.917969 4.910156 13.128906 4.816406 13.332031 4.695312 C 13.53125 4.574219 13.71875 4.433594 13.886719 4.273438 C 14.058594 4.113281 14.207031 3.933594 14.335938 3.738281 C 14.46875 3.542969 14.574219 3.335938 14.660156 3.117188 C 14.742188 2.898438 14.800781 2.671875 14.835938 2.4375 C 14.871094 2.207031 14.878906 1.972656 14.863281 1.734375 C 14.847656 1.5 14.804688 1.269531 14.734375 1.042969 C 14.667969 0.816406 14.574219 0.601562 14.460938 0.394531 C 14.503906 0.761719 14.484375 1.121094 14.402344 1.480469 C 14.320312 1.835938 14.179688 2.171875 13.984375 2.480469 C 13.789062 2.785156 13.546875 3.050781 13.257812 3.277344 C 12.96875 3.5 12.652344 3.667969 12.308594 3.777344 Z M 12.308594 3.777344 " fill-opacity="1" fill-rule="nonzero"/></g></g></g></g></g></g></g></g></g><g clip-path="url(#7957c3e11f)"><g clip-path="url(#adc184de1d)"><g clip-path="url(#4822424bb4)"><path fill="#f5f5f5" d="M 15.296875 14.144531 C 15.34375 14.289062 15.332031 14.429688 15.261719 14.566406 C 15.195312 14.703125 15.089844 14.796875 14.945312 14.84375 L 9.941406 16.464844 C 9.796875 16.511719 9.65625 16.5 9.523438 16.429688 C 9.386719 16.359375 9.292969 16.25 9.246094 16.101562 C 9.199219 15.957031 9.210938 15.816406 9.28125 15.679688 C 9.347656 15.542969 9.453125 15.453125 9.597656 15.40625 L 14.601562 13.785156 C 14.746094 13.738281 14.886719 13.75 15.019531 13.820312 C 15.15625 13.890625 15.25 13.996094 15.296875 14.144531 Z M 15.296875 14.144531 " fill-opacity="1" fill-rule="nonzero"/></g></g></g><g clip-path="url(#99a40b5ad9)"><g clip-path="url(#cd057337ce)"><g clip-path="url(#c10cb6bf88)"><path fill="#f5f5f5" d="M 13.109375 9.945312 C 13.4375 10.210938 13.703125 10.527344 13.90625 10.898438 C 14.105469 11.269531 14.230469 11.667969 14.277344 12.085938 C 14.324219 12.507812 14.289062 12.917969 14.175781 13.324219 C 14.058594 13.730469 13.871094 14.09375 13.609375 14.425781 L 8.296875 21.109375 C 8.035156 21.4375 7.722656 21.703125 7.355469 21.902344 C 6.988281 22.105469 6.597656 22.230469 6.183594 22.273438 C 5.765625 22.316406 5.355469 22.28125 4.953125 22.160156 C 4.550781 22.042969 4.1875 21.851562 3.859375 21.585938 C 3.53125 21.320312 3.269531 21 3.066406 20.628906 C 2.863281 20.257812 2.738281 19.863281 2.691406 19.445312 C 2.644531 19.023438 2.679688 18.613281 2.796875 18.207031 C 2.910156 17.800781 3.101562 17.433594 3.359375 17.105469 L 8.671875 10.421875 C 8.933594 10.09375 9.246094 9.828125 9.613281 9.628906 C 9.980469 9.425781 10.371094 9.300781 10.789062 9.257812 C 11.203125 9.210938 11.613281 9.25 12.015625 9.367188 C 12.417969 9.488281 12.78125 9.679688 13.109375 9.945312 Z M 13.109375 9.945312 " fill-opacity="1" fill-rule="nonzero"/></g></g></g><g clip-path="url(#11f61662a4)"><g clip-path="url(#045247ca93)"><g clip-path="url(#d457e0e449)"><g mask="url(#7602771378)"><g transform="matrix(1, 0, 0, 1, 1, 8)"><g clip-path="url(#f551e7ec0c)"><g clip-path="url(#22a8f0cc61)"><g clip-path="url(#525ed03e8a)"><g clip-path="url(#1f2ce346af)"><path fill="#737373" d="M 12.109375 1.945312 C 12.4375 2.210938 12.703125 2.527344 12.90625 2.898438 C 13.105469 3.269531 13.230469 3.667969 13.277344 4.085938 C 13.324219 4.507812 13.289062 4.917969 13.175781 5.324219 C 13.058594 5.730469 12.871094 6.09375 12.609375 6.425781 L 7.296875 13.109375 C 7.035156 13.4375 6.722656 13.703125 6.355469 13.902344 C 5.988281 14.105469 5.597656 14.230469 5.183594 14.273438 C 4.765625 14.316406 4.355469 14.28125 3.953125 14.160156 C 3.550781 14.042969 3.1875 13.851562 2.859375 13.585938 C 2.53125 13.320312 2.269531 13 2.066406 12.628906 C 1.863281 12.257812 1.738281 11.863281 1.691406 11.445312 C 1.644531 11.023438 1.679688 10.613281 1.796875 10.207031 C 1.910156 9.800781 2.101562 9.433594 2.359375 9.105469 L 7.671875 2.421875 C 7.933594 2.09375 8.246094 1.828125 8.613281 1.628906 C 8.980469 1.425781 9.371094 1.300781 9.789062 1.257812 C 10.203125 1.210938 10.613281 1.25 11.015625 1.367188 C 11.417969 1.488281 11.78125 1.679688 12.109375 1.945312 Z M 12.109375 1.945312 " fill-opacity="1" fill-rule="nonzero"/></g></g></g></g></g></g></g></g></g><g clip-path="url(#ee5f15307a)"><g clip-path="url(#b969197cf7)"><g clip-path="url(#c80355f9f5)"><path fill="#ff1616" d="M 6.015625 13.765625 L 8.671875 10.421875 C 8.933594 10.09375 9.246094 9.828125 9.613281 9.628906 C 9.980469 9.425781 10.371094 9.300781 10.789062 9.257812 C 11.203125 9.210938 11.613281 9.25 12.015625 9.367188 C 12.417969 9.488281 12.78125 9.679688 13.109375 9.945312 C 13.4375 10.210938 13.703125 10.527344 13.90625 10.898438 C 14.105469 11.269531 14.230469 11.667969 14.277344 12.085938 C 14.324219 12.507812 14.289062 12.917969 14.175781 13.324219 C 14.058594 13.730469 13.871094 14.09375 13.609375 14.425781 L 10.953125 17.765625 Z M 6.015625 13.765625 " fill-opacity="1" fill-rule="nonzero"/></g></g></g><g clip-path="url(#1b50d86736)"><g clip-path="url(#be3918c926)"><g clip-path="url(#a94f91999d)"><g mask="url(#c575a5a9eb)"><g transform="matrix(1, 0, 0, 1, 1, 9)"><g clip-path="url(#2dfa12f4b1)"><g clip-path="url(#dcb7bf7fe5)"><g clip-path="url(#c12867f8de)"><g clip-path="url(#419c6b2ef3)"><path fill="#737373" d="M 11.628906 4.628906 L 6.316406 11.3125 C 6.089844 11.601562 5.824219 11.839844 5.511719 12.03125 C 5.203125 12.222656 4.871094 12.355469 4.515625 12.429688 C 4.15625 12.503906 3.800781 12.519531 3.4375 12.46875 C 3.078125 12.417969 2.734375 12.308594 2.410156 12.136719 C 2.558594 12.320312 2.726562 12.484375 2.914062 12.628906 C 3.101562 12.769531 3.300781 12.894531 3.511719 12.992188 C 3.722656 13.09375 3.945312 13.167969 4.171875 13.21875 C 4.402344 13.269531 4.632812 13.292969 4.867188 13.292969 C 5.101562 13.289062 5.332031 13.261719 5.558594 13.210938 C 5.789062 13.15625 6.007812 13.078125 6.214844 12.976562 C 6.425781 12.875 6.621094 12.75 6.804688 12.601562 C 6.988281 12.457031 7.152344 12.292969 7.296875 12.109375 L 12.609375 5.421875 C 12.753906 5.242188 12.878906 5.042969 12.980469 4.832031 C 13.082031 4.621094 13.160156 4.398438 13.214844 4.167969 C 13.269531 3.941406 13.296875 3.707031 13.296875 3.472656 C 13.300781 3.238281 13.277344 3.003906 13.226562 2.773438 C 13.179688 2.542969 13.105469 2.320312 13.007812 2.105469 C 12.90625 1.890625 12.789062 1.6875 12.644531 1.5 C 12.503906 1.3125 12.34375 1.140625 12.164062 0.988281 C 11.984375 0.835938 11.789062 0.707031 11.582031 0.597656 C 11.816406 0.882812 11.996094 1.195312 12.121094 1.539062 C 12.25 1.886719 12.3125 2.242188 12.320312 2.609375 C 12.324219 2.976562 12.265625 3.332031 12.148438 3.679688 C 12.03125 4.027344 11.855469 4.34375 11.628906 4.628906 Z M 11.628906 4.628906 " fill-opacity="1" fill-rule="nonzero"/></g></g></g></g></g></g></g></g></g><g clip-path="url(#9bbbe9cb46)"><g clip-path="url(#03226fb7ea)"><g clip-path="url(#24cb3a2ab3)"><path fill="#f5f5f5" d="M 7.855469 13.636719 C 7.976562 13.734375 8.042969 13.859375 8.058594 14.011719 C 8.078125 14.164062 8.039062 14.300781 7.945312 14.421875 L 4.664062 18.550781 C 4.566406 18.667969 4.445312 18.738281 4.292969 18.753906 C 4.140625 18.769531 4.007812 18.730469 3.886719 18.632812 C 3.769531 18.535156 3.699219 18.410156 3.683594 18.257812 C 3.667969 18.105469 3.707031 17.96875 3.800781 17.851562 L 7.082031 13.722656 C 7.175781 13.601562 7.300781 13.535156 7.449219 13.519531 C 7.601562 13.503906 7.738281 13.542969 7.855469 13.636719 Z M 7.855469 13.636719 " fill-opacity="1" fill-rule="nonzero"/></g></g></g><g fill="#ff1616" fill-opacity="1"><g transform="translate(25.001904, 17.875646)"><g><path d="M 0.335938 -3.707031 C 0.335938 -1.421875 1.703125 0.0898438 3.753906 0.0898438 C 4.796875 0.0898438 5.300781 -0.359375 5.859375 -0.359375 C 6.242188 -0.359375 6.464844 -0.132812 6.667969 0.0898438 L 6.914062 0 C 6.914062 -0.0898438 6.308594 -3.507812 7.5625 -3.507812 L 7.5625 -3.765625 L 4.035156 -3.765625 L 4.035156 -3.507812 L 4.28125 -3.507812 C 4.773438 -3.472656 4.929688 -3.261719 4.929688 -2.609375 L 4.929688 -0.382812 C 4.660156 -0.246094 4.390625 -0.167969 4.125 -0.167969 C 3.035156 -0.167969 2.429688 -1.433594 2.429688 -3.707031 C 2.429688 -6.003906 3.046875 -7.25 4.191406 -7.25 C 5.152344 -7.25 6.003906 -6.375 6.519531 -4.851562 L 6.777344 -4.851562 L 6.777344 -7.417969 L 6.519531 -7.417969 C 6.308594 -7.136719 6.175781 -7.046875 5.949219 -7.046875 C 5.445312 -7.046875 4.886719 -7.507812 3.765625 -7.507812 C 1.546875 -7.507812 0.335938 -5.816406 0.335938 -3.707031 Z M 0.335938 -3.707031 "/></g></g></g><g fill="#ff1616" fill-opacity="1"><g transform="translate(32.631886, 17.875646)"><g><path d="M 0.222656 -1.332031 C 0.222656 -0.492188 0.976562 0.0898438 1.917969 0.0898438 C 2.453125 0.0898438 3.148438 -0.113281 3.550781 -0.886719 C 3.753906 -0.214844 4.179688 0.0898438 4.953125 0.0898438 C 5.402344 0.0898438 5.847656 -0.0117188 6.261719 -0.191406 L 6.261719 -0.449219 C 6.128906 -0.390625 5.996094 -0.371094 5.882812 -0.371094 C 5.570312 -0.371094 5.367188 -0.582031 5.367188 -0.964844 L 5.367188 -3.125 C 5.367188 -4.828125 4.269531 -5.691406 2.769531 -5.691406 C 1.457031 -5.691406 0.640625 -5.03125 0.640625 -4.144531 C 0.640625 -3.574219 0.984375 -3.203125 1.5 -3.203125 C 2.027344 -3.203125 2.386719 -3.585938 2.386719 -4.144531 C 2.164062 -4.382812 2.050781 -4.640625 2.050781 -4.875 C 2.050781 -5.1875 2.261719 -5.433594 2.667969 -5.433594 C 3.214844 -5.433594 3.460938 -4.976562 3.460938 -4.113281 C 3.460938 -3.855469 3.441406 -3.550781 3.394531 -3.226562 C 2.085938 -3.113281 0.222656 -2.667969 0.222656 -1.332031 Z M 2.140625 -1.3125 C 2.140625 -2.363281 2.609375 -2.800781 3.382812 -2.945312 L 3.382812 -2.441406 C 3.382812 -1.042969 2.9375 -0.324219 2.578125 -0.324219 C 2.308594 -0.324219 2.140625 -0.683594 2.140625 -1.3125 Z M 2.140625 -1.3125 "/></g></g></g><g fill="#ff1616" fill-opacity="1"><g transform="translate(38.962196, 17.875646)"><g><path d="M 0.3125 -4.941406 C 0.671875 -4.941406 0.839844 -4.773438 0.839844 -4.292969 L 0.839844 -2.476562 C 0.839844 -0.640625 1.535156 0.0898438 3.316406 0.0898438 C 3.753906 0.0898438 4.191406 -0.0234375 4.617188 -0.257812 L 4.425781 -0.550781 C 4.15625 -0.335938 3.777344 -0.167969 3.484375 -0.167969 C 2.769531 -0.167969 2.824219 -1.164062 2.824219 -1.894531 L 2.824219 -5.175781 L 4.335938 -5.175781 L 4.335938 -5.433594 L 2.824219 -5.433594 L 2.824219 -7.136719 L 2.566406 -7.226562 C 1.960938 -6.242188 1.097656 -5.390625 0.0664062 -5.199219 L 0.0664062 -4.941406 Z M 0.3125 -4.941406 "/></g></g></g><g fill="#ff1616" fill-opacity="1"><g transform="translate(43.6455, 17.875646)"><g><path d="M 0.292969 -2.800781 C 0.292969 -1.074219 1.625 0.0898438 3.585938 0.0898438 C 4.605469 0.0898438 5.445312 -0.292969 5.960938 -0.996094 L 5.589844 -1.242188 C 5.1875 -0.515625 4.382812 -0.167969 3.742188 -0.167969 C 2.21875 -0.167969 2.207031 -2.074219 2.207031 -3.160156 L 5.960938 -3.160156 C 5.960938 -4.671875 5.007812 -5.691406 3.226562 -5.691406 C 1.445312 -5.691406 0.292969 -4.558594 0.292969 -2.800781 Z M 2.21875 -3.417969 C 2.296875 -4.785156 2.632812 -5.433594 3.25 -5.433594 C 3.886719 -5.433594 4.15625 -4.828125 4.203125 -3.417969 Z M 2.21875 -3.417969 "/></g></g></g><g fill="#ff1616" fill-opacity="1"><g transform="translate(49.897376, 17.875646)"><g><path d="M 0.15625 -0.257812 L 0.15625 0 L 4.15625 0 L 4.15625 -0.257812 C 3.382812 -0.257812 3.261719 -0.390625 3.261719 -1.234375 C 3.261719 -2.878906 3.417969 -3.328125 4.144531 -4.054688 L 4.269531 -4.179688 C 4.886719 -3.550781 5.589844 -1.636719 5.589844 -0.828125 C 5.589844 -0.460938 5.410156 -0.257812 5.066406 -0.257812 L 4.839844 -0.257812 L 4.839844 0 L 8.640625 0 L 8.640625 -0.257812 L 8.539062 -0.257812 C 8.101562 -0.257812 7.921875 -0.503906 7.71875 -0.929688 C 6.679688 -3.136719 5.726562 -4.15625 4.503906 -4.4375 C 5.34375 -5.355469 6.96875 -7.160156 8.089844 -7.160156 L 8.089844 -7.417969 L 5.367188 -7.417969 L 5.367188 -7.160156 C 5.78125 -7.160156 5.972656 -7.046875 5.972656 -6.914062 C 5.972656 -6.519531 4.492188 -4.671875 3.261719 -3.519531 L 3.261719 -6.183594 C 3.261719 -7.027344 3.417969 -7.160156 4.382812 -7.160156 L 4.382812 -7.417969 L 0.15625 -7.417969 L 0.15625 -7.160156 C 1.121094 -7.160156 1.277344 -7.027344 1.277344 -6.183594 L 1.277344 -1.234375 C 1.277344 -0.390625 1.121094 -0.257812 0.15625 -0.257812 Z M 0.15625 -0.257812 "/></g></g></g><g fill="#ff1616" fill-opacity="1"><g transform="translate(58.602949, 17.875646)"><g><path d="M 0.292969 -2.800781 C 0.292969 -1.074219 1.625 0.0898438 3.585938 0.0898438 C 4.605469 0.0898438 5.445312 -0.292969 5.960938 -0.996094 L 5.589844 -1.242188 C 5.1875 -0.515625 4.382812 -0.167969 3.742188 -0.167969 C 2.21875 -0.167969 2.207031 -2.074219 2.207031 -3.160156 L 5.960938 -3.160156 C 5.960938 -4.671875 5.007812 -5.691406 3.226562 -5.691406 C 1.445312 -5.691406 0.292969 -4.558594 0.292969 -2.800781 Z M 2.21875 -3.417969 C 2.296875 -4.785156 2.632812 -5.433594 3.25 -5.433594 C 3.886719 -5.433594 4.15625 -4.828125 4.203125 -3.417969 Z M 2.21875 -3.417969 "/></g></g></g><g fill="#ff1616" fill-opacity="1"><g transform="translate(64.854825, 17.875646)"><g><path d="M 0.292969 -2.800781 C 0.292969 -1.074219 1.625 0.0898438 3.585938 0.0898438 C 4.605469 0.0898438 5.445312 -0.292969 5.960938 -0.996094 L 5.589844 -1.242188 C 5.1875 -0.515625 4.382812 -0.167969 3.742188 -0.167969 C 2.21875 -0.167969 2.207031 -2.074219 2.207031 -3.160156 L 5.960938 -3.160156 C 5.960938 -4.671875 5.007812 -5.691406 3.226562 -5.691406 C 1.445312 -5.691406 0.292969 -4.558594 0.292969 -2.800781 Z M 2.21875 -3.417969 C 2.296875 -4.785156 2.632812 -5.433594 3.25 -5.433594 C 3.886719 -5.433594 4.15625 -4.828125 4.203125 -3.417969 Z M 2.21875 -3.417969 "/></g></g></g><g fill="#ff1616" fill-opacity="1"><g transform="translate(71.1067, 17.875646)"><g><path d="M 0.132812 2.386719 L 3.910156 2.386719 L 3.910156 2.128906 L 3.664062 2.128906 C 3.195312 2.128906 3.015625 1.917969 3.015625 1.234375 L 3.015625 -0.550781 C 3.40625 -0.101562 3.832031 0.0898438 4.492188 0.0898438 C 6.027344 0.0898438 7.070312 -1.085938 7.070312 -2.800781 C 7.070312 -4.515625 6.015625 -5.691406 4.492188 -5.691406 C 3.832031 -5.691406 3.40625 -5.5 3.015625 -5.054688 L 3.015625 -5.589844 L 2.769531 -5.679688 C 2.375 -5.265625 1.847656 -5.199219 0.382812 -5.199219 L 0.191406 -5.199219 L 0.191406 -4.941406 C 0.851562 -4.941406 0.996094 -4.761719 1.03125 -4.292969 L 1.03125 1.234375 C 1.03125 1.917969 0.851562 2.09375 0.382812 2.128906 L 0.132812 2.128906 Z M 3.015625 -4.335938 C 3.203125 -4.90625 3.652344 -5.34375 4.035156 -5.34375 C 4.726562 -5.34375 5.152344 -4.382812 5.152344 -2.800781 C 5.152344 -1.222656 4.726562 -0.257812 4.035156 -0.257812 C 3.652344 -0.257812 3.203125 -0.695312 3.015625 -1.265625 Z M 3.015625 -4.335938 "/></g></g></g><g fill="#ff1616" fill-opacity="1"><g transform="translate(78.467785, 17.875646)"><g><path d="M 0.292969 -2.800781 C 0.292969 -1.074219 1.625 0.0898438 3.585938 0.0898438 C 4.605469 0.0898438 5.445312 -0.292969 5.960938 -0.996094 L 5.589844 -1.242188 C 5.1875 -0.515625 4.382812 -0.167969 3.742188 -0.167969 C 2.21875 -0.167969 2.207031 -2.074219 2.207031 -3.160156 L 5.960938 -3.160156 C 5.960938 -4.671875 5.007812 -5.691406 3.226562 -5.691406 C 1.445312 -5.691406 0.292969 -4.558594 0.292969 -2.800781 Z M 2.21875 -3.417969 C 2.296875 -4.785156 2.632812 -5.433594 3.25 -5.433594 C 3.886719 -5.433594 4.15625 -4.828125 4.203125 -3.417969 Z M 2.21875 -3.417969 "/></g></g></g><g fill="#ff1616" fill-opacity="1"><g transform="translate(84.71966, 17.875646)"><g><path d="M 0.132812 0 L 3.910156 0 L 3.910156 -0.257812 L 3.664062 -0.257812 C 3.171875 -0.257812 3.015625 -0.503906 3.015625 -1.152344 L 3.015625 -2.5 C 3.015625 -4.472656 3.855469 -5.421875 4.359375 -5.421875 C 4.582031 -5.421875 4.75 -5.289062 4.75 -5.054688 C 4.75 -4.839844 4.617188 -4.558594 4.28125 -4.214844 C 4.28125 -3.652344 4.640625 -3.273438 5.164062 -3.273438 C 5.679688 -3.273438 6.027344 -3.640625 6.027344 -4.234375 C 6.027344 -5.121094 5.265625 -5.691406 4.527344 -5.691406 C 3.910156 -5.691406 3.371094 -5.253906 3.015625 -4.605469 L 3.015625 -5.546875 L 2.769531 -5.636719 C 2.375 -5.222656 1.847656 -5.199219 0.382812 -5.199219 L 0.191406 -5.199219 L 0.191406 -4.941406 C 0.808594 -4.941406 1.03125 -4.761719 1.03125 -4.292969 L 1.03125 -1.152344 C 1.03125 -0.503906 0.875 -0.257812 0.382812 -0.257812 L 0.132812 -0.257812 Z M 0.132812 0 "/></g></g></g></svg>